<?xml version="1.0" encoding="UTF-8"?>
<!-- Font Awesome Free Brands: CC BY 4.0; converted by Lumen. -->
<svg xmlns="http://www.w3.org/2000/svg" width="24" height="24" viewBox="0 0 512 512" color="#000000" fill="#000000" stroke="none" stroke-width="0" stroke-linecap="round" stroke-linejoin="round">
  <path d="M326.3 218.8c0 20.5-16.7 37.2-37.2 37.2l-70.3 0 0-74.4 70.3 0c20.5 0 37.2 16.7 37.2 37.2zM8 256a248 248 0 1 1 496 0 248 248 0 1 1 -496 0zm367.9-37.2c0-47.9-38.9-86.8-86.8-86.8l-119.9 0 0 248 49.6 0 0-74.4 70.3 0c47.9 0 86.8-38.9 86.8-86.8z" />
</svg>
