<?xml version="1.0" encoding="UTF-8"?>
<!-- Lucide Icons: ISC License; converted by Lumen. -->
<svg xmlns="http://www.w3.org/2000/svg" width="24" height="24" viewBox="0 0 24 24" color="#000000" fill="none" stroke="#000000" stroke-width="2" stroke-linecap="round" stroke-linejoin="round">
  <path d="M10 12H8" />
  <path d="M16 12h-2" />
  <path d="M22 12h-2" />
  <path d="M4 12H2" />
  <path d="M7.298 20.288A1 1 0 0 0 8 22h8a1 1 0 0 0 .703-1.712l-3.991-3.99a1 1 0 0 0 -1.424-.001z" />
  <path d="M7.298 3.712A1 1 0 0 1 8 2h8a1 1 0 0 1 .703 1.712l-3.991 3.99a1 1 0 0 1 -1.424.001z" />
</svg>
