<?xml version="1.0" encoding="UTF-8"?>
<!-- Font Awesome Free Brands: CC BY 4.0; converted by Lumen. -->
<svg xmlns="http://www.w3.org/2000/svg" width="24" height="24" viewBox="-32 0 512 512" color="#000000" fill="#000000" stroke="none" stroke-width="0" stroke-linecap="round" stroke-linejoin="round">
  <path d="M427.4 203c0-112.1-90.9-203-203-203-112.1-.2-203 90.6-203.2 202.6-.1 43 13.5 84.8 38.7 119.6s60.9 60.6 101.8 73.8l0 101.7c0 3.8 1.5 7.4 4.2 10.1s6.3 4.2 10.1 4.2l96.4 0c3.8 0 7.4-1.5 10.1-4.2s4.2-6.3 4.2-10.1l0-101.6c40.8-13.2 76.5-39 101.7-73.7s38.9-76.5 39-119.4zm-271.6 0c0-90.8 137.3-90.8 137.3 0-.1 89.9-137.3 91-137.3 0z" />
</svg>
